<?xml version="1.0" encoding="utf-8"?>
<!-- Generator: Adobe Illustrator 16.0.0, SVG Export Plug-In . SVG Version: 6.00 Build 0)  -->
<!DOCTYPE svg PUBLIC "-//W3C//DTD SVG 1.1 Tiny//EN" "http://www.w3.org/Graphics/SVG/1.1/DTD/svg11-tiny.dtd">
<svg version="1.1" baseProfile="tiny" id="Layer_1" xmlns="http://www.w3.org/2000/svg" xmlns:xlink="http://www.w3.org/1999/xlink"
	 x="0px" y="0px" width="24px" height="24px" viewBox="0 0 24 24" xml:space="preserve">
<g>
	<g>
		<path d="M23,21.4H1c-0.221,0-0.4-0.179-0.4-0.4V3c0-0.221,0.179-0.4,0.4-0.4S1.4,2.779,1.4,3v17.6H23c0.221,0,0.4,0.179,0.4,0.4
			S23.221,21.4,23,21.4z"/>
	</g>
	<g>
		<path d="M5.979,19.359c-1.312,0-2.379-1.067-2.379-2.379V6.021c0-1.312,1.067-2.379,2.379-2.379s2.379,1.067,2.379,2.379v10.958
			C8.358,18.292,7.292,19.359,5.979,19.359z M5.979,4.442c-0.871,0-1.58,0.708-1.58,1.58v10.958c0,0.871,0.708,1.58,1.58,1.58
			c0.871,0,1.579-0.708,1.579-1.58V6.021C7.559,5.15,6.85,4.442,5.979,4.442z"/>
	</g>
	<g>
		<path d="M13,19.359c-1.323,0-2.4-1.077-2.4-2.4V12c0-1.323,1.077-2.4,2.4-2.4s2.4,1.077,2.4,2.4v4.959
			C15.4,18.282,14.323,19.359,13,19.359z M13,10.4c-0.882,0-1.6,0.718-1.6,1.6v4.959c0,0.882,0.718,1.6,1.6,1.6s1.6-0.718,1.6-1.6
			V12C14.6,11.118,13.882,10.4,13,10.4z"/>
	</g>
	<g>
		<path d="M20.016,19.359c-1.332,0-2.416-1.083-2.416-2.416V8.016c0-1.332,1.083-2.416,2.416-2.416s2.416,1.083,2.416,2.416v8.928
			C22.431,18.275,21.348,19.359,20.016,19.359z M20.016,6.4c-0.891,0-1.616,0.725-1.616,1.616v8.928
			c0,0.891,0.725,1.616,1.616,1.616s1.616-0.725,1.616-1.616V8.016C21.631,7.125,20.906,6.4,20.016,6.4z"/>
	</g>
</g>
</svg>
